<?xml version="1.0" standalone="no"?>
<!DOCTYPE svg PUBLIC "-//W3C//DTD SVG 20010904//EN"
 "http://www.w3.org/TR/2001/REC-SVG-20010904/DTD/svg10.dtd">
<svg version="1.0" xmlns="http://www.w3.org/2000/svg"
 width="278.000000pt" height="251.000000pt" viewBox="0 0 278.000000 251.000000"
 preserveAspectRatio="xMidYMid meet">

<g transform="translate(0.000000,251.000000) scale(0.100000,-0.100000)"
fill="#000000" stroke="none">
<path d="M135 2494 c3 -13 0 -28 -9 -37 -14 -13 -14 -16 -1 -27 11 -9 15 -9
15 -1 0 6 5 11 10 11 6 0 10 -7 10 -15 0 -9 9 -15 25 -15 18 0 23 4 19 15 -4
8 -11 15 -16 15 -6 0 -8 12 -5 30 7 32 -10 51 -24 29 -8 -12 -11 -12 -20 1 -8
12 -9 11 -4 -6z"/>
<path d="M5 2481 c-9 -9 -5 -31 6 -31 11 0 39 24 39 34 0 6 -39 4 -45 -3z"/>
<path d="M685 2452 c-2 -2 -36 -3 -77 -4 -120 0 -178 -8 -178 -24 0 -8 -10
-14 -22 -14 -29 0 -108 -41 -108 -56 0 -7 -8 -14 -18 -18 -9 -3 -24 -10 -32
-15 -8 -5 -47 -19 -87 -31 -49 -14 -79 -30 -95 -49 -35 -41 -50 -48 -38 -16
13 34 13 35 -4 29 -8 -3 -16 2 -19 13 -2 10 -5 -496 -6 -1125 l-1 -1142 195 0
c128 0 194 3 190 10 -3 6 -1 10 4 10 6 0 11 -4 11 -10 0 -6 48 -10 125 -10 77
0 125 4 125 10 0 6 -6 10 -14 10 -8 0 -13 11 -13 26 0 14 -6 31 -12 37 -9 9
-11 8 -6 -4 5 -13 -3 -18 -37 -22 -24 -4 -55 -9 -70 -13 -25 -6 -28 -4 -26 20
2 19 8 26 23 26 16 0 17 2 6 9 -34 22 99 27 380 16 122 -5 192 -4 204 2 17 10
17 11 -3 17 -42 14 -22 27 36 24 31 -2 56 -7 55 -13 -2 -5 -7 -10 -12 -10 -5
0 -12 -3 -16 -7 -8 -7 27 -14 124 -23 72 -7 145 -33 212 -76 l46 -29 626 0
627 0 0 319 0 319 -35 -9 c-38 -11 -55 -6 -55 15 0 23 -36 46 -71 46 -19 0
-54 -11 -78 -25 -23 -14 -49 -25 -57 -25 -8 0 -31 -15 -51 -33 -41 -36 -128
-87 -148 -87 -8 0 -44 -16 -82 -37 -224 -119 -281 -145 -363 -162 -47 -10 -90
-16 -97 -14 -6 2 -17 18 -23 34 -16 38 -65 79 -95 79 -14 0 -41 -14 -61 -32
-30 -27 -39 -30 -55 -20 -16 10 -19 9 -19 -7 0 -22 -28 -35 -54 -25 -9 3 -16
12 -16 20 0 18 2 18 -64 -11 -88 -39 -196 -38 -196 2 0 5 25 15 55 22 52 12
84 31 51 31 -9 0 -16 3 -16 6 0 9 75 81 91 86 9 3 14 19 14 49 0 37 3 44 21
47 43 6 58 37 56 110 -2 95 -10 121 -32 119 -10 -1 -16 -5 -13 -10 3 -5 0 -8
-8 -5 -8 3 -15 12 -17 21 -2 12 1 15 12 11 9 -3 16 -1 16 6 0 6 -8 10 -17 9
-10 -2 -28 2 -40 9 l-23 13 20 -34 c11 -19 18 -42 14 -51 -3 -9 -1 -16 5 -16
6 0 11 5 11 10 0 6 5 10 10 10 6 0 10 -7 10 -15 0 -8 -7 -15 -16 -15 -9 0 -12
-5 -8 -12 5 -8 2 -9 -11 -5 -14 6 -16 3 -12 -13 3 -11 1 -20 -5 -20 -6 0 -8
14 -6 32 6 36 -17 72 -25 40 -3 -14 -6 -12 -14 8 -6 14 -13 24 -17 23 -16 -7
-26 -2 -26 13 0 12 3 14 13 6 7 -6 18 -7 26 -3 10 7 6 15 -17 36 -20 17 -29
33 -25 44 4 9 3 13 -1 10 -10 -9 -76 55 -76 74 0 8 -3 17 -7 20 -5 2 -2 2 5 0
7 -1 21 11 30 27 9 16 28 34 42 39 21 8 17 10 -27 10 -41 1 -55 5 -63 20 -5
11 -20 23 -31 26 -14 5 -18 10 -10 14 7 5 3 12 -13 19 -28 13 -45 57 -28 74
14 14 50 -25 58 -64 7 -29 19 -34 44 -18 12 8 11 13 -8 33 -12 13 -22 28 -22
34 0 7 -8 14 -18 17 -16 5 -18 17 -16 94 2 48 5 96 7 108 3 11 2 25 -1 30 -10
13 -102 86 -135 108 -18 11 -39 42 -57 82 -29 63 -54 82 -66 49 -8 -20 -38
-19 -55 1 -7 9 -14 35 -15 58 0 22 -10 61 -22 85 -22 45 -17 71 14 71 19 0 44
29 44 50 0 11 -19 33 -45 52 -24 18 -47 41 -50 51 -8 22 4 59 16 52 5 -4 9 -2
9 4 0 16 61 29 146 30 78 1 84 -1 142 -38 62 -40 172 -159 226 -245 16 -26 32
-43 34 -37 8 23 -21 81 -56 113 -85 77 -182 184 -177 195 2 7 -2 13 -9 13 -7
0 -19 6 -25 13 -8 11 -6 20 9 37 24 28 24 26 6 33 -10 4 -13 1 -9 -9 3 -7 0
-14 -6 -14 -6 0 -11 5 -11 10 0 6 -9 21 -21 33 -11 12 -27 38 -35 57 -18 41
-32 52 -55 40 -12 -7 -19 -3 -30 16 -22 42 -59 62 -122 65 -32 2 -60 3 -62 1z
m145 -37 c7 -8 5 -12 -5 -12 -8 0 -12 4 -9 9 3 5 -6 6 -20 2 -15 -3 -26 -2
-26 4 0 14 48 12 60 -3z m-113 -1 c-3 -3 -12 -4 -19 -1 -8 3 -5 6 6 6 11 1 17
-2 13 -5z m-647 -774 c0 -8 -4 -22 -9 -29 -8 -12 -11 -8 -16 15 -3 16 -10 43
-15 59 l-9 30 24 -30 c14 -16 25 -37 25 -45z m628 -80 c2 -14 -3 -33 -11 -44
-13 -18 -14 -18 -35 5 -12 12 -22 33 -22 47 0 20 4 23 33 20 26 -2 33 -8 35
-28z m-601 -262 c-3 -8 -6 -5 -6 6 -1 11 2 17 5 13 3 -3 4 -12 1 -19z m1321
-542 c-2 -18 -7 -23 -16 -17 -9 5 -11 17 -6 35 8 34 27 20 22 -18z m-121 -28
c-3 -8 -6 -5 -6 6 -1 11 2 17 5 13 3 -3 4 -12 1 -19z m57 -442 c-11 -8 -38
-18 -60 -22 -21 -3 -56 -13 -76 -21 -38 -15 -88 -11 -88 7 0 6 17 10 38 11 20
0 66 8 102 18 36 10 74 19 85 20 19 1 19 1 -1 -13z m1062 -130 c16 -8 65 -17
108 -20 85 -8 137 -24 75 -24 -18 0 -38 -1 -44 -3 -31 -9 -205 35 -205 52 0
13 33 11 66 -5z m-1939 -52 c-3 -3 -12 -4 -19 -1 -8 3 -5 6 6 6 11 1 17 -2 13
-5z m-126 -31 c-25 -13 -37 -13 -56 -5 -41 19 -29 27 31 23 l57 -3 -32 -15z"/>
<path d="M0 2430 c0 -5 8 -10 18 -10 13 0 14 -2 4 -9 -11 -7 -10 -9 3 -14 20
-8 33 22 14 34 -19 12 -39 11 -39 -1z"/>
<path d="M1031 2201 c-9 -6 -10 -11 -2 -15 13 -8 31 1 31 15 0 11 -11 11 -29
0z"/>
<path d="M855 2010 c-8 -13 -1 -24 14 -19 6 3 7 10 2 18 -6 10 -10 10 -16 1z"/>
<path d="M890 1935 c0 -13 9 -39 21 -57 l21 -33 -7 35 c-4 19 -8 45 -9 58 -1
30 -26 28 -26 -3z"/>
<path d="M954 1746 c3 -22 10 -44 16 -50 16 -16 12 35 -6 64 -15 25 -15 25
-10 -14z"/>
<path d="M1064 1749 c-4 -8 -3 -9 4 -5 7 4 12 3 12 -3 0 -5 -4 -13 -10 -16
-19 -12 -10 -22 15 -17 37 7 31 -3 -20 -32 -71 -42 -73 -56 -17 -109 67 -61
88 -72 108 -52 15 14 43 19 92 15 14 -1 22 4 22 14 0 12 -10 16 -39 16 -23 0
-46 7 -55 16 -15 15 -18 22 -21 69 -1 11 -5 33 -9 49 -6 20 -5 31 5 36 9 6 4
11 -17 15 -16 4 -36 9 -46 11 -9 3 -20 -1 -24 -7z"/>
<path d="M1158 1329 c-24 -13 -23 -29 2 -29 11 0 20 2 20 4 0 2 3 11 6 20 7
18 -3 20 -28 5z"/>
<path d="M1115 1320 c-3 -5 -1 -10 4 -10 6 0 11 5 11 10 0 6 -2 10 -4 10 -3 0
-8 -4 -11 -10z"/>
<path d="M1290 1233 c0 -6 17 -26 39 -45 21 -18 44 -44 50 -56 7 -13 15 -21
18 -18 9 8 -45 86 -65 93 -9 4 -22 14 -29 22 -7 10 -12 11 -13 4z"/>
<path d="M1402 1065 c0 -16 2 -22 5 -12 2 9 2 23 0 30 -3 6 -5 -1 -5 -18z"/>
<path d="M1325 1050 c3 -5 8 -10 11 -10 2 0 4 5 4 10 0 6 -5 10 -11 10 -5 0
-7 -4 -4 -10z"/>
<path d="M1315 810 c3 -5 8 -10 11 -10 2 0 4 5 4 10 0 6 -5 10 -11 10 -5 0 -7
-4 -4 -10z"/>
<path d="M635 80 c-3 -5 -2 -10 4 -10 5 0 13 5 16 10 3 6 2 10 -4 10 -5 0 -13
-4 -16 -10z"/>
</g>
</svg>
